#!OML:ASF F:\VICON\USERDATA\INSTALL\rory3\rory3.ASF
:FULLY-SPECIFIED
:DEGREES
44
root -0.3683640711388809 18.264551888885645 9.9199333372857 -0.3977247398690811 -1.0731066655377879 -5.165785014961314
lfemur -31.819673666942872 4.800690489542546 -13.497975001865811
ltibia 79.89769699226116
lfoot -4.282455252701144 -3.852226489156256
ltoes -5.8788179299336445
rfemur -3.068884554491559 3.6910917627596547 35.05959232474443
rtibia 37.80763696975997
rfoot -14.07771566953031 -6.524970839921242
rtoes 8.712978413629418
lowerback 12.773556849404688 1.0858159552962687 4.86517878250834
upperback -0.11069034287653667 2.181880589078074 2.2128871284051552
thorax -7.050249301404069 0.9674677219669602 -1.1602127631114978
lowerneck -16.55954232275242 -3.339153445054172 -2.197785992332476
upperneck 18.52105942063369 -4.298626219600315 1.9618214564616085
head 8.49803280020583 -2.014082823818791 0.6190535995489045
lclavicle -1.673149722773489e-15 -3.59044879943471e-15
lhumerus -43.18606467686613 -5.467022229162023 90.92900466359418
lradius 68.6419851043232
lwrist 21.0132326658376
lhand -30.059362605738837 10.606061825840865
lfingers 7.125019999999999
lthumb -3.477354977686226 40.53338839403647
rclavicle -1.6759579436109287e-15 -3.59241378686603e-15
rhumerus -39.337436115487435 -3.6829113331977874 -91.04910532671838
rradius 68.39915650147921
rwrist -5.504731873255599
rhand -18.247298156138356 28.67413173090041
rfingers 7.125019999999999
rthumb 7.719285565373876 -1.8477111246495226
45
root -0.3449934782577566 18.103649752580093 11.089609949742485 0.18774054411636681 -1.9880295616280852 -5.666904254967552
lfemur -33.302531848245664 3.144216620820247 -12.546830386663382
ltibia 65.74409514842982
lfoot -3.966156679717499 -1.3611742659394208
ltoes -6.492674018357338
rfemur -0.5866821948486436 4.399527082048072 35.59826192271746
rtibia 37.029170631695564
rfoot -15.683998928818127 -6.775363899754534
rtoes 8.07728686870703
lowerback 12.753076569056084 1.4379903949532553 5.72258314608081
upperback -0.21356169783033896 2.789181024163013 2.1440463563799725
thorax -7.113479838428802 1.2305682248516832 -1.7655891648705542
lowerneck -17.008635306771815 -3.3091059695980953 -2.147945444262874
upperneck 18.19079021101192 -4.247883833496773 1.8403238661022492
head 8.458189757460394 -1.9812678964040003 0.574683073838525
lclavicle -1.673075930481357e-15 -3.590392844506017e-15
lhumerus -45.02584662912896 -4.8132531788464545 90.65048707811147
lradius 67.54378298858776
lwrist 21.093883323163645
lhand -30.664345180574866 10.029537022888206
lfingers 7.125019999999999
lthumb -4.116597729610597 40.10670414144693
rclavicle -1.6741617396765138e-15 -3.591143686286942e-15
rhumerus -36.897207293471055 -1.2110503433234516 -92.4066434181595
rradius 71.76367140263656
rwrist -8.013680279080777
rhand -18.72965563221371 28.76561302971242
rfingers 7.125019999999999
rthumb 7.223426746304757 -1.428443111764645
46
root -0.31156742344326427 18.053754065138136 12.24326709848535 1.0554232914899955 -2.4658323149124577 -5.844288798793496
lfemur -33.29878805109993 -0.3476160190736912 -11.32796887117952
ltibia 47.65493529640668
lfoot -2.4479024109550513 0.8379300715825764
ltoes -5.124620950533321
rfemur 2.1292889257879803 4.763828074225824 35.654292292022056
rtibia 35.00603814646314
rfoot -16.781807655470367 -7.088002528842778
rtoes 5.677544389343133
lowerback 11.848724191796009 1.6903926838198353 6.129857536802243
upperback -0.4072067227637384 3.1474262917237406 2.083054436512088
thorax -6.7788090727459185 1.3805916119498587 -2.1236013303681984
lowerneck -17.269210271189422 -3.281268363706979 -2.072377688096979
upperneck 17.742403421234965 -4.2172572766895176 1.7484445162006939
head 8.334225278767235 -1.9522198764687513 0.5411539955707676
lclavicle -1.6725517121724494e-15 -3.590021548635419e-15
lhumerus -46.7104485433156 -3.742874402573788 90.22722187563511
lradius 65.41554475596472
lwrist 18.942204615800325
lhand -30.486476657697832 10.319078319869757
lfingers 7.125019999999999
lthumb -3.9671472157368095 40.547084271812416
rclavicle -1.6731687742157918e-15 -3.590441540561246e-15
rhumerus -34.6621574177768 0.28834325202849964 -93.00213712772961
rradius 73.94068164781558
rwrist -9.326262349133755
rhand -18.997341308555338 29.251273310385375
rfingers 7.125019999999999
rthumb 7.079205041769377 -0.45088735729502777
47
root -0.27927820588907354 17.930851184264995 13.541638838393974 1.9554694623506292 -2.8961355147524745 -6.079636276480673
lfemur -31.621313646116498 -5.135554791876479 -9.523286516666914
ltibia 29.008691614493088
lfoot -2.948020849640382 2.5129827597136405
ltoes -6.5656727489969064
rfemur 4.8353979257398425 5.193617700847574 35.716146489827025
rtibia 33.15729828103078
rfoot -18.053808834509237 -7.133927733491507
rtoes 1.5701195621389277
lowerback 10.902916144331375 1.9339256862296148 6.524382415223256
upperback -0.7818693649747339 3.4973534536209074 2.012421226879689
thorax -6.568078525132262 1.5307328048754612 -2.380764315652444
lowerneck -17.56712052955649 -3.3401721384888 -2.0149774549440886
upperneck 17.887632828241472 -4.361017809498891 1.7962792545894222
head 8.444768396653366 -2.009568789502976 0.5288751006674022
lclavicle -1.674222563186234e-15 -3.591202028827441e-15
lhumerus -48.20025263589981 -2.3061862486871703 89.51256921339258
lradius 62.811893162101235
lwrist 17.02090651589227
lhand -29.910999612183534 10.550228169558718
lfingers 7.125019999999999
lthumb -3.3469699766373613 40.73794725998316
rclavicle -1.673087839334556e-15 -3.590384295913789e-15
rhumerus -32.988190664899136 1.0324708946289656 -93.10217683605248
rradius 75.3625794066918
rwrist -9.838481670973849
rhand -19.121816868511825 29.80914263918977
rfingers 7.125019999999999
rthumb 6.9436031976800585 0.1803093421683074
